<svg width="20" height="20" viewBox="0 0 20 20" fill="none" xmlns="http://www.w3.org/2000/svg">
<path d="M10 13.7402C10.2563 13.7329 10.4907 13.6377 10.6812 13.4326L16.2476 7.73438C16.4087 7.57324 16.4966 7.36816 16.4966 7.12646C16.4966 6.64307 16.1157 6.25488 15.6323 6.25488C15.3979 6.25488 15.1709 6.3501 15.0024 6.51855L10.0073 11.6528L4.99756 6.51855C4.8291 6.35742 4.60938 6.25488 4.36768 6.25488C3.88428 6.25488 3.50342 6.64307 3.50342 7.12646C3.50342 7.36816 3.59131 7.57324 3.75244 7.73438L9.32617 13.4326C9.52393 13.6377 9.74365 13.7402 10 13.7402Z" fill="#1C1C1E"/>
</svg>
