<svg width="18" height="15" viewBox="0 0 18 15" fill="none" xmlns="http://www.w3.org/2000/svg">
<path d="M0.694336 7.64551C0.694336 7.90918 0.808594 8.16406 1.01074 8.35742L6.80273 14.1494C7.01367 14.3516 7.25098 14.4482 7.48828 14.4482C8.04199 14.4482 8.4375 14.0527 8.4375 13.5254C8.4375 13.2529 8.33203 13.0156 8.15625 12.8486L6.1875 10.8535L3.58594 8.48047L5.64258 8.60352H16.3301C16.9014 8.60352 17.3057 8.20801 17.3057 7.64551C17.3057 7.07422 16.9014 6.6875 16.3301 6.6875H5.64258L3.59473 6.81055L6.1875 4.4375L8.15625 2.44238C8.33203 2.2666 8.4375 2.0293 8.4375 1.75684C8.4375 1.22949 8.04199 0.842773 7.48828 0.842773C7.25098 0.842773 7.01367 0.930664 6.78516 1.15039L1.01074 6.93359C0.808594 7.11816 0.694336 7.38184 0.694336 7.64551Z" fill="#1C1C1E"/>
</svg>
