<svg width="20" height="20" viewBox="0 0 20 20" fill="none" xmlns="http://www.w3.org/2000/svg">
<path d="M3.75244 11.7183L9.32617 6.02002C9.5166 5.81494 9.74365 5.71973 10 5.71973C10.2563 5.71973 10.4907 5.82227 10.6812 6.02002L16.2476 11.7183C16.4087 11.8794 16.4966 12.0845 16.4966 12.3262C16.4966 12.8169 16.1157 13.1978 15.6323 13.1978C15.3979 13.1978 15.1709 13.1099 15.0024 12.9341L10.0073 7.7998L4.99756 12.9341C4.83643 13.1025 4.60938 13.1978 4.36768 13.1978C3.88428 13.1978 3.50342 12.8169 3.50342 12.3262C3.50342 12.0918 3.59131 11.8794 3.75244 11.7183Z" fill="#1C1C1E"/>
</svg>
