<svg width="24" height="24" viewBox="0 0 24 24" fill="none" xmlns="http://www.w3.org/2000/svg">
<path d="M5.94434 19.8799H18.0469C19.9541 19.8799 20.9473 18.8955 20.9473 17.0146V6.31836C20.9473 4.4375 19.9541 3.45312 18.0469 3.45312H5.94434C4.0459 3.45312 3.05273 4.42871 3.05273 6.31836V17.0146C3.05273 18.8955 4.0459 19.8799 5.94434 19.8799ZM5.93555 18.1309C5.20605 18.1309 4.80176 17.7529 4.80176 16.9795V8.89355C4.80176 8.12012 5.20605 7.74219 5.93555 7.74219H18.0557C18.7852 7.74219 19.1895 8.12012 19.1895 8.89355V16.9795C19.1895 17.7529 18.7852 18.1309 18.0557 18.1309H5.93555ZM10.3037 10.7744H10.8223C11.1387 10.7744 11.2441 10.6777 11.2441 10.3701V9.85156C11.2441 9.53516 11.1387 9.43848 10.8223 9.43848H10.3037C9.9873 9.43848 9.88184 9.53516 9.88184 9.85156V10.3701C9.88184 10.6777 9.9873 10.7744 10.3037 10.7744ZM13.1777 10.7744H13.6963C14.0039 10.7744 14.1094 10.6777 14.1094 10.3701V9.85156C14.1094 9.53516 14.0039 9.43848 13.6963 9.43848H13.1777C12.8613 9.43848 12.7559 9.53516 12.7559 9.85156V10.3701C12.7559 10.6777 12.8613 10.7744 13.1777 10.7744ZM16.043 10.7744H16.5615C16.8779 10.7744 16.9834 10.6777 16.9834 10.3701V9.85156C16.9834 9.53516 16.8779 9.43848 16.5615 9.43848H16.043C15.7354 9.43848 15.6299 9.53516 15.6299 9.85156V10.3701C15.6299 10.6777 15.7354 10.7744 16.043 10.7744ZM7.43848 13.6045H7.94824C8.26465 13.6045 8.37012 13.5078 8.37012 13.1914V12.6729C8.37012 12.3652 8.26465 12.2686 7.94824 12.2686H7.43848C7.12207 12.2686 7.0166 12.3652 7.0166 12.6729V13.1914C7.0166 13.5078 7.12207 13.6045 7.43848 13.6045ZM10.3037 13.6045H10.8223C11.1387 13.6045 11.2441 13.5078 11.2441 13.1914V12.6729C11.2441 12.3652 11.1387 12.2686 10.8223 12.2686H10.3037C9.9873 12.2686 9.88184 12.3652 9.88184 12.6729V13.1914C9.88184 13.5078 9.9873 13.6045 10.3037 13.6045ZM13.1777 13.6045H13.6963C14.0039 13.6045 14.1094 13.5078 14.1094 13.1914V12.6729C14.1094 12.3652 14.0039 12.2686 13.6963 12.2686H13.1777C12.8613 12.2686 12.7559 12.3652 12.7559 12.6729V13.1914C12.7559 13.5078 12.8613 13.6045 13.1777 13.6045ZM16.043 13.6045H16.5615C16.8779 13.6045 16.9834 13.5078 16.9834 13.1914V12.6729C16.9834 12.3652 16.8779 12.2686 16.5615 12.2686H16.043C15.7354 12.2686 15.6299 12.3652 15.6299 12.6729V13.1914C15.6299 13.5078 15.7354 13.6045 16.043 13.6045ZM7.43848 16.4258H7.94824C8.26465 16.4258 8.37012 16.3291 8.37012 16.0215V15.5029C8.37012 15.1865 8.26465 15.0898 7.94824 15.0898H7.43848C7.12207 15.0898 7.0166 15.1865 7.0166 15.5029V16.0215C7.0166 16.3291 7.12207 16.4258 7.43848 16.4258ZM10.3037 16.4258H10.8223C11.1387 16.4258 11.2441 16.3291 11.2441 16.0215V15.5029C11.2441 15.1865 11.1387 15.0898 10.8223 15.0898H10.3037C9.9873 15.0898 9.88184 15.1865 9.88184 15.5029V16.0215C9.88184 16.3291 9.9873 16.4258 10.3037 16.4258ZM13.1777 16.4258H13.6963C14.0039 16.4258 14.1094 16.3291 14.1094 16.0215V15.5029C14.1094 15.1865 14.0039 15.0898 13.6963 15.0898H13.1777C12.8613 15.0898 12.7559 15.1865 12.7559 15.5029V16.0215C12.7559 16.3291 12.8613 16.4258 13.1777 16.4258Z" fill="#1C1C1E"/>
</svg>
