<svg width="24" height="24" viewBox="0 0 24 24" fill="none" xmlns="http://www.w3.org/2000/svg">
<path d="M5.78246 20.5067C6.20699 20.5067 6.5566 20.1654 6.5566 19.7325V15.1792C6.78968 15.096 7.4889 14.8463 8.54606 14.8463C11.576 14.8463 13.6071 16.3613 16.5372 16.3613C17.8191 16.3613 18.4101 16.2031 19.0511 15.9034C19.6504 15.6371 20 15.1459 20 14.3801V6.08934C20 5.53996 19.5755 5.19867 19.0094 5.19867C18.535 5.19867 17.7858 5.51498 16.4539 5.51498C13.5572 5.51498 11.4845 4 8.46282 4C7.20588 4 6.63152 4.15816 5.95727 4.45782C5.36626 4.73252 5 5.16537 5 5.92286V19.7325C5 20.157 5.35794 20.5067 5.78246 20.5067Z" fill="#1C1C1E"/>
</svg>
