<svg width="32" height="32" viewBox="0 0 32 32" fill="none" xmlns="http://www.w3.org/2000/svg">
<g id="Icon/badge person">
<path id="rectangle.stack.fill.badge.person.crop" d="M12.4295 6.56791H24.1879C24.1253 5.76254 23.651 5.33301 22.783 5.33301H13.8345C12.9664 5.33301 12.4922 5.76254 12.4295 6.56791ZM10.6756 9.17193H25.9508C25.8255 8.32182 25.387 7.82965 24.4295 7.82965H12.1879C11.2304 7.82965 10.8009 8.32182 10.6756 9.17193ZM25.047 10.6484H11.5526C9.61074 10.6484 8.6085 11.6417 8.6085 13.5657V17.0019C11.8389 17.0019 14.4966 19.6596 14.4966 22.8811C14.4966 24.0355 14.1477 25.1093 13.557 26.022H25.047C26.9799 26.022 28 25.0198 28 23.1048V13.5657C28 11.6507 26.9799 10.6484 25.047 10.6484ZM8.6085 27.4986C11.1141 27.4986 13.226 25.4046 13.226 22.8811C13.226 20.3576 11.1409 18.2726 8.6085 18.2726C6.08501 18.2726 4 20.3576 4 22.8811C4 25.4135 6.08501 27.4986 8.6085 27.4986ZM8.6085 23.078C7.80313 23.078 7.18568 22.4158 7.18568 21.503C7.18568 20.6887 7.81208 19.9997 8.6085 19.9997C9.41387 19.9997 10.0403 20.6887 10.0403 21.503C10.0403 22.4158 9.41387 23.078 8.6085 23.078ZM8.61745 26.3263C7.31096 26.3263 6.29978 25.6373 6.03132 25.0377V24.993C6.31767 24.4381 7.26622 23.8207 8.6085 23.8207C9.95973 23.8207 10.9083 24.4381 11.1946 24.993V25.0377C10.9172 25.6462 9.91499 26.3263 8.61745 26.3263Z" fill="#040413" fill-opacity="0.55"/>
</g>
</svg>
