<svg width="24" height="24" viewBox="0 0 24 24" fill="none" xmlns="http://www.w3.org/2000/svg">
<g clip-path="url(#clip0_493_3767)">
<path fill-rule="evenodd" clip-rule="evenodd" d="M8.14289 2.08831C8.14257 1.8623 8.20183 1.6402 8.31471 1.44439C8.42758 1.24858 8.59008 1.08599 8.78582 0.972993C8.98156 0.86 9.20362 0.8006 9.42964 0.800782C9.65565 0.800963 9.87762 0.860719 10.0732 0.974027L17.7669 5.24946C17.9672 5.36084 18.1341 5.52375 18.2504 5.72133C18.3666 5.9189 18.4278 6.14395 18.4278 6.37317C18.4278 6.60239 18.3666 6.82744 18.2504 7.02501C18.1341 7.22259 17.9672 7.3855 17.7669 7.49688L10.7143 11.4175V16.0529C11.5749 16.4009 12.2606 17.0866 12.6086 17.9472H18.6V16.55C18.6003 16.2959 18.6758 16.0475 18.8171 15.8363C18.9584 15.6251 19.1591 15.4605 19.3939 15.3632C19.6287 15.266 19.887 15.2406 20.1363 15.2901C20.3855 15.3396 20.6145 15.4619 20.7943 15.6415L23.4772 18.3226C23.5972 18.4426 23.6924 18.5851 23.757 18.7421C23.8217 18.899 23.8547 19.0672 23.8541 19.2369C23.8534 19.4066 23.8192 19.5745 23.7533 19.731C23.6875 19.8874 23.5913 20.0292 23.4703 20.1483L20.7943 22.8226C20.6145 23.0022 20.3855 23.1245 20.1363 23.174C19.887 23.2235 19.6287 23.198 19.3939 23.1008C19.1591 23.0036 18.9584 22.839 18.8171 22.6277C18.6758 22.4165 18.6003 22.1682 18.6 21.914V20.5186H12.6086C12.353 21.1527 11.9137 21.696 11.347 22.0785C10.7804 22.4611 10.1123 22.6655 9.4286 22.6655C8.74491 22.6655 8.07682 22.4611 7.51017 22.0785C6.94352 21.696 6.50419 21.1527 6.2486 20.5186H1.43318C1.09218 20.5186 0.765156 20.3831 0.524038 20.142C0.28292 19.9009 0.147461 19.5739 0.147461 19.2329C0.147461 18.8919 0.28292 18.5649 0.524038 18.3237C0.765156 18.0826 1.09218 17.9472 1.43318 17.9472H6.25032C6.42296 17.5206 6.67941 17.1331 7.00449 16.8074C7.32957 16.4817 7.71667 16.2246 8.14289 16.0512V2.08831Z" fill="#0E0E0E"/>
</g>
<defs>
<clipPath id="clip0_493_3767">
<rect width="24" height="24" fill="white"/>
</clipPath>
</defs>
</svg>
