<svg width="24" height="24" viewBox="0 0 24 24" fill="none" xmlns="http://www.w3.org/2000/svg">
<g id="Icon/Brain">
<path id="Vector" d="M7.3559 3.352C8.17427 2.73222 9.17333 2.39794 10.1999 2.4004C10.4879 2.4004 10.7171 2.5504 10.8503 2.6536C10.9991 2.7712 11.1383 2.9212 11.2631 3.0712C11.3516 3.17868 11.4 3.31359 11.3999 3.4528V7.8004H10.0979C9.95637 7.40008 9.67786 7.06267 9.31161 6.84783C8.94537 6.63298 8.51496 6.55452 8.09646 6.62633C7.67797 6.69813 7.29833 6.91557 7.02464 7.24021C6.75095 7.56485 6.60085 7.97579 6.60085 8.4004C6.60085 8.82502 6.75095 9.23596 7.02464 9.5606C7.29833 9.88524 7.67797 10.1027 8.09646 10.1745C8.51496 10.2463 8.94537 10.1678 9.31161 9.95298C9.67786 9.73814 9.95637 9.40073 10.0979 9.0004H11.3999V20.2984C11.4 20.3872 11.3803 20.475 11.3423 20.5553C11.3043 20.6356 11.249 20.7065 11.1803 20.7628C10.6259 21.2164 9.8843 21.6004 8.9999 21.6004C7.5767 21.6004 6.5171 20.8828 5.8319 20.0248C5.33961 19.4135 5.00243 18.6922 4.8491 17.9224C4.38288 17.7981 3.9506 17.5705 3.5843 17.2564C2.9219 16.6888 2.3999 15.7684 2.3999 14.4004C2.3999 13.732 2.4443 13.1284 2.5439 12.6004H6.2999C7.0631 12.6004 7.6919 13.1704 7.7879 13.9072C7.38884 14.0516 7.05364 14.3324 6.84149 14.7C6.62933 15.0675 6.55388 15.4982 6.62844 15.916C6.703 16.3338 6.92278 16.7118 7.24898 16.9833C7.57518 17.2548 7.98681 17.4023 8.4112 17.3997C8.83558 17.3972 9.24542 17.2448 9.56835 16.9694C9.89128 16.6941 10.1065 16.3135 10.1761 15.8948C10.2457 15.4762 10.1651 15.0464 9.94853 14.6814C9.732 14.3164 9.39346 14.0396 8.9927 13.9C8.94212 13.2204 8.63646 12.5851 8.13703 12.1215C7.6376 11.6579 6.98134 11.4003 6.2999 11.4004H2.9291C3.1127 11.0428 3.3587 10.7404 3.6791 10.5256C3.76015 10.472 3.8452 10.4246 3.9335 10.384C3.5927 9.3856 3.6815 8.2168 4.0103 7.2988C4.2203 6.7084 4.5539 6.1504 5.0123 5.7784C5.3147 5.5324 5.6747 5.3704 6.0683 5.3392C6.2411 4.5196 6.7259 3.8416 7.3559 3.352ZM12.5999 17.4004H13.4999C14.216 17.4004 14.9027 17.1159 15.4091 16.6096C15.9154 16.1032 16.1999 15.4165 16.1999 14.7004V12.4984C16.6002 12.3569 16.9376 12.0784 17.1525 11.7121C17.3673 11.3459 17.4458 10.9155 17.374 10.497C17.3022 10.0785 17.0847 9.69883 16.7601 9.42514C16.4355 9.15146 16.0245 9.00135 15.5999 9.00135C15.1753 9.00135 14.7643 9.15146 14.4397 9.42514C14.1151 9.69883 13.8976 10.0785 13.8258 10.497C13.754 10.9155 13.8325 11.3459 14.0473 11.7121C14.2622 12.0784 14.5996 12.3569 14.9999 12.4984V14.7004C14.9999 15.5284 14.3279 16.2004 13.4999 16.2004H12.5999V3.4528C12.5999 3.31359 12.6482 3.17868 12.7367 3.0712C12.8603 2.9212 13.0007 2.7712 13.1495 2.6536C13.2815 2.5504 13.5107 2.4004 13.7999 2.4004C14.8265 2.39794 15.8255 2.73222 16.6439 3.352C17.2739 3.8416 17.7599 4.5196 17.9315 5.3392C18.3251 5.3692 18.6851 5.5324 18.9875 5.7784C19.4459 6.1504 19.7795 6.7084 19.9895 7.2988C20.3183 8.2168 20.4071 9.38681 20.0663 10.3828C20.1527 10.4236 20.2379 10.4716 20.3207 10.5268C20.6507 10.7464 20.9015 11.0608 21.0863 11.4316C21.4499 12.1576 21.5999 13.1704 21.5999 14.4004C21.5999 15.7696 21.0779 16.6888 20.4155 17.2564C20.0492 17.5705 19.6169 17.7981 19.1507 17.9224C19.0307 18.592 18.6947 19.3672 18.1679 20.0248C17.4839 20.8828 16.4231 21.6004 14.9999 21.6004C14.1167 21.6004 13.3739 21.2164 12.8207 20.7628C12.7518 20.7066 12.6962 20.6358 12.658 20.5555C12.6198 20.4751 12.6 20.3873 12.5999 20.2984V17.4004ZM8.3999 7.8004C8.24077 7.8004 8.08816 7.86362 7.97564 7.97614C7.86312 8.08866 7.7999 8.24127 7.7999 8.4004C7.7999 8.55953 7.86312 8.71215 7.97564 8.82467C8.08816 8.93719 8.24077 9.0004 8.3999 9.0004C8.55903 9.0004 8.71164 8.93719 8.82417 8.82467C8.93669 8.71215 8.9999 8.55953 8.9999 8.4004C8.9999 8.24127 8.93669 8.08866 8.82417 7.97614C8.71164 7.86362 8.55903 7.8004 8.3999 7.8004ZM8.3999 15.0004C8.24077 15.0004 8.08816 15.0636 7.97564 15.1761C7.86312 15.2887 7.7999 15.4413 7.7999 15.6004C7.7999 15.7595 7.86312 15.9121 7.97564 16.0247C8.08816 16.1372 8.24077 16.2004 8.3999 16.2004C8.55903 16.2004 8.71164 16.1372 8.82417 16.0247C8.93669 15.9121 8.9999 15.7595 8.9999 15.6004C8.9999 15.4413 8.93669 15.2887 8.82417 15.1761C8.71164 15.0636 8.55903 15.0004 8.3999 15.0004ZM15.5999 11.4004C15.759 11.4004 15.9116 11.3372 16.0242 11.2247C16.1367 11.1121 16.1999 10.9595 16.1999 10.8004C16.1999 10.6413 16.1367 10.4887 16.0242 10.3761C15.9116 10.2636 15.759 10.2004 15.5999 10.2004C15.4408 10.2004 15.2882 10.2636 15.1756 10.3761C15.0631 10.4887 14.9999 10.6413 14.9999 10.8004C14.9999 10.9595 15.0631 11.1121 15.1756 11.2247C15.2882 11.3372 15.4408 11.4004 15.5999 11.4004Z" fill="#0E0E0E"/>
</g>
</svg>
