<svg width="1016" height="40" viewBox="0 0 1016 40" fill="none" xmlns="http://www.w3.org/2000/svg">
<rect width="1016" height="40" rx="8" fill="#F2F3F5"/>
<path d="M21.0977 22.8613C22.2622 22.8613 23.3535 22.5098 24.2617 21.9092L27.4697 25.1245C27.6821 25.3296 27.9531 25.4321 28.2461 25.4321C28.854 25.4321 29.3008 24.9561 29.3008 24.3555C29.3008 24.0771 29.2056 23.8062 29.0005 23.6011L25.8145 20.4004C26.4736 19.4629 26.8618 18.3276 26.8618 17.0972C26.8618 13.9258 24.269 11.333 21.0977 11.333C17.9336 11.333 15.3335 13.9258 15.3335 17.0972C15.3335 20.2686 17.9263 22.8613 21.0977 22.8613ZM21.0977 21.3232C18.7759 21.3232 16.8716 19.4189 16.8716 17.0972C16.8716 14.7754 18.7759 12.8711 21.0977 12.8711C23.4194 12.8711 25.3237 14.7754 25.3237 17.0972C25.3237 19.4189 23.4194 21.3232 21.0977 21.3232Z" fill="#AAAAAA"/>
<path d="M49.0645 25H47.834V16.2432H42.5566V25H41.3262V15.1357H49.0645V25ZM54.4547 25.1299C52.3561 25.1299 51.0573 23.6807 51.0573 21.3223V21.3086C51.0573 18.9434 52.3561 17.501 54.4547 17.501C56.5534 17.501 57.8522 18.9434 57.8522 21.3086V21.3223C57.8522 23.6807 56.5534 25.1299 54.4547 25.1299ZM54.4547 24.0771C55.8493 24.0771 56.6354 23.0586 56.6354 21.3223V21.3086C56.6354 19.5654 55.8493 18.5537 54.4547 18.5537C53.0602 18.5537 52.2741 19.5654 52.2741 21.3086V21.3223C52.2741 23.0586 53.0602 24.0771 54.4547 24.0771ZM59.6878 25V17.6309H60.8772V23.127H60.9866L64.6302 17.6309H65.8196V25H64.6302V19.5039H64.5208L60.8772 25H59.6878ZM71.0458 25.1299C68.9814 25.1299 67.662 23.6328 67.662 21.2949V21.2812C67.662 18.9912 68.9745 17.501 71.039 17.501C72.83 17.501 73.9032 18.5332 74.122 19.8457L74.1288 19.8867H72.9462L72.9394 19.8662C72.7548 19.1416 72.0986 18.5537 71.039 18.5537C69.7128 18.5537 68.8788 19.6201 68.8788 21.2812V21.2949C68.8788 22.9902 69.7265 24.0771 71.039 24.0771C72.0302 24.0771 72.6591 23.6396 72.9325 22.8193L72.9462 22.7783L74.122 22.7715L74.1083 22.8467C73.8075 24.1797 72.8163 25.1299 71.0458 25.1299ZM77.4205 21.6436H77.0445V25H75.855V17.6309H77.0445V20.7139H77.4205L80.2711 17.6309H81.6998L78.3843 21.1035L81.8296 25H80.3052L77.4205 21.6436ZM87.1278 25V17.6309H93.0887V25H91.8993V18.6152H88.3172V25H87.1278ZM98.3218 25.1299C96.2231 25.1299 94.9243 23.6807 94.9243 21.3223V21.3086C94.9243 18.9434 96.2231 17.501 98.3218 17.501C100.42 17.501 101.719 18.9434 101.719 21.3086V21.3223C101.719 23.6807 100.42 25.1299 98.3218 25.1299ZM98.3218 24.0771C99.7163 24.0771 100.502 23.0586 100.502 21.3223V21.3086C100.502 19.5654 99.7163 18.5537 98.3218 18.5537C96.9272 18.5537 96.1411 19.5654 96.1411 21.3086V21.3223C96.1411 23.0586 96.9272 24.0771 98.3218 24.0771ZM110.374 25.1299C108.309 25.1299 106.99 23.6328 106.99 21.2949V21.2812C106.99 18.9912 108.302 17.501 110.367 17.501C112.158 17.501 113.231 18.5332 113.45 19.8457L113.457 19.8867H112.274L112.267 19.8662C112.083 19.1416 111.427 18.5537 110.367 18.5537C109.041 18.5537 108.207 19.6201 108.207 21.2812V21.2949C108.207 22.9902 109.054 24.0771 110.367 24.0771C111.358 24.0771 111.987 23.6396 112.261 22.8193L112.274 22.7783L113.45 22.7715L113.436 22.8467C113.136 24.1797 112.144 25.1299 110.374 25.1299ZM118.218 25.1299C116.12 25.1299 114.821 23.6807 114.821 21.3223V21.3086C114.821 18.9434 116.12 17.501 118.218 17.501C120.317 17.501 121.616 18.9434 121.616 21.3086V21.3223C121.616 23.6807 120.317 25.1299 118.218 25.1299ZM118.218 24.0771C119.613 24.0771 120.399 23.0586 120.399 21.3223V21.3086C120.399 19.5654 119.613 18.5537 118.218 18.5537C116.824 18.5537 116.037 19.5654 116.037 21.3086V21.3223C116.037 23.0586 116.824 24.0771 118.218 24.0771ZM128.312 17.6309V18.6152H125.926V25H124.736V18.6152H122.351V17.6309H128.312ZM129.894 27.4609V17.6309H131.084V18.8066H131.193C131.644 17.9863 132.465 17.501 133.49 17.501C135.356 17.501 136.58 19.0117 136.58 21.3086V21.3223C136.58 23.6328 135.363 25.1299 133.49 25.1299C132.478 25.1299 131.596 24.624 131.193 23.8379H131.084V27.4609H129.894ZM133.216 24.0771C134.563 24.0771 135.363 23.0381 135.363 21.3223V21.3086C135.363 19.5928 134.563 18.5537 133.216 18.5537C131.877 18.5537 131.056 19.6064 131.056 21.3086V21.3223C131.056 23.0244 131.877 24.0771 133.216 24.0771ZM138.791 27.584C138.634 27.584 138.429 27.5703 138.265 27.543V26.5654C138.409 26.5928 138.593 26.5996 138.757 26.5996C139.434 26.5996 139.844 26.292 140.111 25.4443L140.247 25.0068L137.52 17.6309H138.791L140.815 23.6943H140.924L142.941 17.6309H144.192L141.314 25.4512C140.705 27.1055 140.097 27.584 138.791 27.584ZM145.651 26.9482H144.544V24.0156H145.159C145.699 23.6602 145.966 22.7305 146.034 21.7393L146.321 17.6309H151.346V24.0156H152.521V26.9482H151.414V25H145.651V26.9482ZM150.156 24.0156V18.6152H147.374L147.142 21.7666C147.073 22.6621 146.882 23.4482 146.533 23.9062V24.0156H150.156ZM158.766 25V21.6641H155.116V25H153.926V17.6309H155.116V20.6797H158.766V17.6309H159.956V25H158.766ZM162.154 25V17.6309H163.343V23.127H163.452L167.096 17.6309H168.285V25H167.096V19.5039H166.987L163.343 25H162.154ZM172.056 21.6436H171.68V25H170.49V17.6309H171.68V20.7139H172.056L174.906 17.6309H176.335L173.019 21.1035L176.465 25H174.94L172.056 21.6436ZM179.791 25.1299C178.389 25.1299 177.33 24.2822 177.33 22.9424V22.9287C177.33 21.6162 178.3 20.8574 180.016 20.7549L182.128 20.625V19.9551C182.128 19.0459 181.575 18.5537 180.474 18.5537C179.592 18.5537 179.011 18.8818 178.82 19.4561L178.813 19.4766H177.624L177.63 19.4355C177.822 18.2803 178.943 17.501 180.515 17.501C182.313 17.501 183.318 18.4238 183.318 19.9551V25H182.128V23.9131H182.019C181.554 24.6992 180.782 25.1299 179.791 25.1299ZM178.546 22.915C178.546 23.6602 179.182 24.0977 180.037 24.0977C181.247 24.0977 182.128 23.3047 182.128 22.252V21.582L180.16 21.7051C179.039 21.7734 178.546 22.1699 178.546 22.9014V22.915ZM186.671 25H185.482V17.6309H186.924L189.549 23.3457H189.658L192.297 17.6309H193.678V25H192.488V19.7568H192.359L190.034 24.7949H189.118L186.801 19.7568H186.671V25ZM199.68 25V17.6309H200.87V23.127H200.979L204.622 17.6309H205.812V25H204.622V19.5039H204.513L200.87 25H199.68ZM209.746 22.1152C209.589 24.1455 208.96 25.0684 207.73 25.0684C207.477 25.0684 207.285 25.0273 207.19 24.9932V23.9199C207.251 23.9404 207.436 23.9678 207.613 23.9678C208.29 23.9678 208.564 23.1133 208.639 22.0195L208.953 17.6309H213.773V25H212.583V18.6152H210.02L209.746 22.1152ZM215.97 25V17.6309H217.16V23.127H217.269L220.913 17.6309H222.102V25H220.913V19.5039H220.803L217.16 25H215.97ZM228.275 26.9482H227.168V24.0156H227.783C228.323 23.6602 228.59 22.7305 228.658 21.7393L228.945 17.6309H233.97V24.0156H235.146V26.9482H234.038V25H228.275V26.9482ZM232.78 24.0156V18.6152H229.998L229.766 21.7666C229.697 22.6621 229.506 23.4482 229.157 23.9062V24.0156H232.78ZM239.586 25.1299C237.487 25.1299 236.188 23.6807 236.188 21.3223V21.3086C236.188 18.9434 237.487 17.501 239.586 17.501C241.684 17.501 242.983 18.9434 242.983 21.3086V21.3223C242.983 23.6807 241.684 25.1299 239.586 25.1299ZM239.586 24.0771C240.98 24.0771 241.766 23.0586 241.766 21.3223V21.3086C241.766 19.5654 240.98 18.5537 239.586 18.5537C238.191 18.5537 237.405 19.5654 237.405 21.3086V21.3223C237.405 23.0586 238.191 24.0771 239.586 24.0771ZM246.48 22.1152C246.323 24.1455 245.694 25.0684 244.463 25.0684C244.21 25.0684 244.019 25.0273 243.923 24.9932V23.9199C243.985 23.9404 244.169 23.9678 244.347 23.9678C245.024 23.9678 245.297 23.1133 245.372 22.0195L245.687 17.6309H250.506V25H249.317V18.6152H246.753L246.48 22.1152ZM253.36 25H251.891L255.069 21.1172L252 17.6309H253.429L256.006 20.7344H256.443V17.6309H257.592V20.7344H258.029L260.606 17.6309H262.015L258.966 21.0898L262.165 25H260.675L258.029 21.623H257.592V25H256.443V21.623H256.006L253.36 25ZM268.396 25V21.6641H264.746V25H263.556V17.6309H264.746V20.6797H268.396V17.6309H269.586V25H268.396ZM274.819 25.1299C272.72 25.1299 271.421 23.6807 271.421 21.3223V21.3086C271.421 18.9434 272.72 17.501 274.819 17.501C276.917 17.501 278.216 18.9434 278.216 21.3086V21.3223C278.216 23.6807 276.917 25.1299 274.819 25.1299ZM274.819 24.0771C276.213 24.0771 276.999 23.0586 276.999 21.3223V21.3086C276.999 19.5654 276.213 18.5537 274.819 18.5537C273.424 18.5537 272.638 19.5654 272.638 21.3086V21.3223C272.638 23.0586 273.424 24.0771 274.819 24.0771ZM283.073 25.1299C281.009 25.1299 279.689 23.6328 279.689 21.2949V21.2812C279.689 18.9912 281.002 17.501 283.066 17.501C284.857 17.501 285.931 18.5332 286.149 19.8457L286.156 19.8867H284.973L284.967 19.8662C284.782 19.1416 284.126 18.5537 283.066 18.5537C281.74 18.5537 280.906 19.6201 280.906 21.2812V21.2949C280.906 22.9902 281.754 24.0771 283.066 24.0771C284.057 24.0771 284.686 23.6396 284.96 22.8193L284.973 22.7783L286.149 22.7715L286.136 22.8467C285.835 24.1797 284.844 25.1299 283.073 25.1299ZM292.879 17.6309V18.6152H290.494V25H289.304V18.6152H286.918V17.6309H292.879ZM294.455 25V17.6309H295.645V23.127H295.754L299.398 17.6309H300.587V25H299.398V19.5039H299.288L295.645 25H294.455Z" fill="#AAAAAA"/>
</svg>
