<svg width="32" height="32" viewBox="0 0 32 32" fill="none" xmlns="http://www.w3.org/2000/svg">
<path d="M16 4C9.37267 4 4 9.37267 4 16C4 22.6273 9.37267 28 16 28C22.6273 28 28 22.6273 28 16" stroke="#040413" stroke-opacity="0.55" stroke-width="2" stroke-linecap="round" stroke-linejoin="round"/>
<path d="M16 10C14.8133 10 13.6533 10.3519 12.6666 11.0112C11.6799 11.6705 10.9109 12.6075 10.4567 13.7039C10.0026 14.8003 9.88378 16.0067 10.1153 17.1705C10.3468 18.3344 10.9182 19.4035 11.7574 20.2426C12.5965 21.0818 13.6656 21.6532 14.8295 21.8847C15.9933 22.1162 17.1997 21.9974 18.2961 21.5433C19.3925 21.0892 20.3295 20.3201 20.9888 19.3334C21.6481 18.3467 22 17.1867 22 16M16 16L20.2 11.796" stroke="#040413" stroke-opacity="0.55" stroke-width="2" stroke-linecap="round" stroke-linejoin="round"/>
<path d="M20.2002 7.61733V11.8H24.4169L28.0002 8.2H23.8022V4L20.2002 7.61733Z" stroke="#040413" stroke-opacity="0.55" stroke-width="2" stroke-linejoin="round"/>
</svg>
