<svg width="24" height="24" viewBox="0 0 24 24" fill="none" xmlns="http://www.w3.org/2000/svg">
<g id="Icon/plus">
<path id="plus" d="M5.63672 12.6562H10.998V18.0176C10.998 18.5625 11.4463 19.0195 12 19.0195C12.5537 19.0195 13.002 18.5625 13.002 18.0176V12.6562H18.3633C18.9082 12.6562 19.3652 12.208 19.3652 11.6543C19.3652 11.1006 18.9082 10.6523 18.3633 10.6523H13.002V5.29102C13.002 4.74609 12.5537 4.28906 12 4.28906C11.4463 4.28906 10.998 4.74609 10.998 5.29102V10.6523H5.63672C5.0918 10.6523 4.63477 11.1006 4.63477 11.6543C4.63477 12.208 5.0918 12.6562 5.63672 12.6562Z" fill="#040413" fill-opacity="0.55"/>
</g>
</svg>
