<svg width="18" height="20" viewBox="0 0 18 20" fill="none" xmlns="http://www.w3.org/2000/svg">
<path d="M1.96875 15.4648H16.0225C16.9277 15.4648 17.4814 14.9727 17.4814 14.2344C17.4814 13.3027 16.6377 12.5029 15.8467 11.7471C15.2227 11.1406 15.082 9.875 14.9678 8.70605C14.8271 5.48926 13.8867 3.22168 11.6104 2.4043C11.25 1.24414 10.292 0.347656 8.99121 0.347656C7.69922 0.347656 6.74121 1.24414 6.37207 2.4043C4.10449 3.22168 3.15527 5.48926 3.02344 8.70605C2.90918 9.875 2.75977 11.1406 2.14453 11.7471C1.35352 12.5029 0.509766 13.3027 0.509766 14.2344C0.509766 14.9727 1.06348 15.4648 1.96875 15.4648ZM8.99121 19.0859C10.5557 19.0859 11.6895 17.9697 11.8037 16.6953H6.1875C6.30176 17.9697 7.43555 19.0859 8.99121 19.0859Z" fill="#1C1C1E"/>
</svg>
