<svg width="20" height="20" viewBox="0 0 20 20" fill="none" xmlns="http://www.w3.org/2000/svg">
<path d="M9.09766 14.8613C10.2622 14.8613 11.3535 14.5098 12.2617 13.9092L15.4697 17.1245C15.6821 17.3296 15.9531 17.4321 16.2461 17.4321C16.854 17.4321 17.3008 16.9561 17.3008 16.3555C17.3008 16.0771 17.2056 15.8062 17.0005 15.6011L13.8145 12.4004C14.4736 11.4629 14.8618 10.3276 14.8618 9.09717C14.8618 5.92578 12.269 3.33301 9.09766 3.33301C5.93359 3.33301 3.3335 5.92578 3.3335 9.09717C3.3335 12.2686 5.92627 14.8613 9.09766 14.8613ZM9.09766 13.3232C6.77588 13.3232 4.87158 11.4189 4.87158 9.09717C4.87158 6.77539 6.77588 4.87109 9.09766 4.87109C11.4194 4.87109 13.3237 6.77539 13.3237 9.09717C13.3237 11.4189 11.4194 13.3232 9.09766 13.3232Z" fill="#AAAAAA"/>
</svg>
